<?xml version='1.0' encoding='utf-8'?>
<svg xmlns="http://www.w3.org/2000/svg" width="101.94mm" height="148.68mm" clip-rule="evenodd" fill-rule="evenodd" image-rendering="optimizeQuality" shape-rendering="geometricPrecision" text-rendering="geometricPrecision" version="1.1" viewBox="0 0 9728 14190"> <defs> <style type="text/css">.fil21 {fill:none} .fil13 {fill:#D1B157} .fil18 {fill:#1C1100} .fil0 {fill:#2B451C} .fil6 {fill:#355914} .fil4 {fill:#3B6413} .fil16 {fill:#452000} .fil17 {fill:#4D2100} .fil7 {fill:#557918} .fil20 {fill:#5A801A} .fil19 {fill:#5A8617} .fil3 {fill:#679219} .fil5 {fill:#6A9029} .fil23 {fill:#7A4D0F} .fil15 {fill:#854B00} .fil12 {fill:#C49D00} .fil10 {fill:#CC8D19} .fil11 {fill:#CC9F19} .fil8 {fill:#D6AB00} .fil1 {fill:#E6B800} .fil2 {fill:#FFCC00} .fil9 {fill:#E0AD12} .fil14 {fill:#B86905} .fil24 {fill:#2B451C;fill-rule:nonzero} .fil22 {fill:#557918;fill-rule:nonzero}</style> </defs> <path class="fil0" d="m6179 9583c175 142 366 404 285 663-178-195-392-191-531-189-140 3-707 313-870 375-728 39 485-734 608-805 0 0 494-57 508-44z"/> <path class="fil1" d="m5440 2023 677-55c51-10 124 0 182 26l108 68 171 266-148 106-507 108-483-519z"/> <path class="fil0" d="m1798 11287 637 207-720 1263c-25 20-65 37-138 51l-150-515 371-1006z"/> <path class="fil2" d="m5829 1093c10-47 41-148 50-195 12-65 61-37 98-16 30 19 52 46 75 72 19 20 45 62 58 86-74 4-136 13-210 20-7 1-63 33-71 33z"/> <path class="fil3" d="m4402 8968c-99-111-165-155-171-299 57-468-266-107-320-346-47-1-63-10-110-11-17-11-49-23-69-28-294-67-507-424-457-710 7-44 25-85 41-126 22-41 33-91 76-112 38-20 9-33 21-26 20 12 39-11 56-33l34-129c17 63 337-85 376-90 57-7 87 0 141 21 21 69 190 26 288 29 23-6 78 24 101 5 217-176 581 671 588 844 10 281-333 1020-452 1206-11 18-122-183-143-195z"/> <path class="fil2" d="m2559 5602c44-150 104-265 108-420 4-9 5-19 16-19l135-79 197-336 142-43 38 349-44 399-205 153c-52 26-197 134-252 117l-8-6c-74-27-135 28-138-78-1-13 3-25 11-37z"/> <path class="fil1" d="m2516 4628 162-27 340-259-34 567-10 36c-13 36-34 62-48 97-6 11-13 21-21 31-69-24-232 164-231 131-5-14 16-41 2-41 0-9 1-19 1-28 0-37-55-9-74-2-103 41-194 93-310 117-21 4-47 16-67 9-30-10-31-57-48-79-23-54-6-117-1-175 3-9 7-19 10-28 27-83 71-139 109-215 6-16 11-31 13-48-2-22 12-19 33-22l174-64z"/> <path class="fil2" d="m3783 86c89 152 174 306 234 473 13 39 26 79 38 119 0 12-2 20 7 30 10-1 19-1 28-1l6 19 48-25 122 116-100 435-326 150-335-414 27-802 145-153c22-24 73 71 106 53z"/> <path class="fil2" d="m2322 2165-8-15c-107-68-259-103-335-210 126 67 182 34 323 10l617 379-294 423-468 209-331-83-293 58-115-57 159-192-72-113c63-137 62-198 197-267 136-70 292-138 446-135 33 22 211 63 174-7z"/> <path class="fil2" d="m2631 1519c-63-147-102-307-74-466 12-69 30-176 95-217 11-6 20-8 32-9 8 20 42 32 60 43 68 50 131 106 194 163 15 23 36 33 59 44 79 40 107 31 224 25l159 409 55 256-720 122-252 22-347-85-118-185c57-53 165-54 236-56 117-3 237 5 353-17 14-3 27-7 41-12 1-13 1-25 3-37z"/> <path class="fil2" d="m1940 4488 89-85c51-53 0-42-54-43-23 0-46-1-69-6 62-28 43-95 55-165l555-170 160-93 5 90-341 374 25 130-245 207c-51 17-152 103-141 165 2 8-9 24-13 32-15 40-34 78-48 118l-22 2c-1-9-2-14-7-21-34-59-49-119-60-185 1-73-2-152 26-221 21-50 45-88 85-129z"/> <path class="fil2" d="m1476 4252c-24 0-13-62-9-75 11-38 103-187 137-208 67-95 34-52-6-52-13 0-20-91-22-108-49 38-26-10-12-38 84-173 107-117-20-179-119-58-243-56-230-247-26 57 16-39 51-145 17-53 8-102-1-156 30 24 45 6 55 51l346-216c2020-78-72 1406-105 1434l-184-61z"/> <path class="fil4" d="m4980 7879-550-675c163-76 318-167 494-207 20-4 175 13 208 18 138 20 306 137 338 278-3 110 1123 156 1051 201-231 145-1321 513-1541 385z"/> <path class="fil5" d="m1525 7674c1-45-173 3-164-81-121 4-175-127-262-186-70-48-94-105-176-148 33-117 434-157 532-172 1-31 89-4 110-5 160-9 310-36 468-88 202-66 102-35 261-50 187-16 573 3 493 29-81 26 143 117 221 143 32 11 64 0 80 31-165 31-280 186-401 286-46 38-130 50-165 104-24 38-149 28-150 67-107 42-211 75-312 108-8-11-186 6-219 6-99-1-209-35-316-44z"/> <path class="fil6" d="m3466 7287c-89-99-236-132-327-229-110-117-579-148-1011-90-51-16 764-356 793-368 90-48 337-81 431-91 68-7 218-31 253 57 28 69 172 86 129 188-65 155-287 189-231 394l-37 139z"/> <path class="fil5" d="m8606 13749c-292-44-596-16-893-52-377-45-222-236-576-323-295-256-735-103-1065-357-98-76-335-170-433-255-241-207-140-805 164-942 198-314 896-81 1088 225 85 134 473 342 599 419 259 159 773 189 969 393 290 300 327 761 720 975-209-42-367-64-573-83z"/> <path class="fil4" d="m4008 7176c117-336 101-782 112-1142-208-26 87-77 115-97 69-68 111-255 192-271 39 28-16 272 1 486-17 243-38 475-72 716-48 346-43 700-17 1043-35 38-35 90-44 138-117 553-78 1161-56 1725 2 48 3 164 40 53 143-424 419-1169 850-1399 124-29-83 150-102 170-263 285-602 863-609 1254 222-14 450-176 666-226-14 21-38 33-59 45 134-66 75-57 278-134 240-91 516-195 744-80 66 34 221 206 269 261 2-8-523-150-799 218-240 190-396 467-619 667-129 106-249 223-380 328-66 54-272 167-275 238-43 972-3 1943-24 2915 3 67-492 205-416-11 71-147 87-1411 90-1594 5-275 5-554 9-826 4-67 23-132 17-198-11-79-113-4-193-18-198-37-304-360-479-465 0-2-54 334-69 429-4 293-449 686-615 814-302 148-511 295-768 497-124 68-120 81-63-41 20-50 111-262 142-194 22-34 45-104 72-151 35-74 53-150 72-230 5-18 266-585 110-347-37 46-42 221-127 210-17-80 1-461-103-476-16 142-118 262-127 404-19 162-131 208-173 360-25 117-72 479-15 563-148-4-282-135-443-109-182 10-300 50-444-77-287-67-568 21-574-377l-1-12c-5-25-44-157-22-156 33-249-89-386-99-615-3-69 91-158 27-150 2-52 34-54 73-72l102-133 421-118 695-663 872-204 286-67 549-78 546 29c81-11 197-51 301-52 133-2 61-775 28-1e3 -27-129-107-266-119-381-16-483-128-1297-676-1427-157-12-165-50-337 90-1 43-162 49-205 34-6 65 61 101-58 138-97 25 24 38-54-10-68-15 6-72-67-10 90 43-66 63-22-47 83-142 90 69 187 15-10-11-31-8-44-8-207-140 312-259 281-281-101-53-415 248-459 217-61-36-2 106-67 52-26 29-32 166-67 64-13-14-79 31-46-19 97-147 258-319 453-333 4-88-251-56-222-76-172-8-474 70-398 39 218-78 541-141 631-100 48 18 221-85 116-127-130-52 158-35 143 23-21 81 174 4 157 105 489 83 287 271 552 499 137 267 245 501 308 788 14 62 53 50 44-38 5-194 62-314 70-556 9-242-7-293 7-431zm-361 544-27-58 27 58zm-99-204-15-28 15 28zm-15-28-20-36 20 36zm-22-39-2-3 2 3zm-41-68-9-13 9 13zm-230-194-7-2c0 2 5 2 7 2zm-238-104c-1-1-4-1-5-1l5 1zm-160-230c-1-26-1-19-2 0h2zm-17-22-3-1 3 1zm727 693 2 4-2-4z"/> <path class="fil7" d="m52 11257c0-9 59-59 68-71 144-195 299-93 487-214 135-88 201-217 318-317 103-89 182-199 285-284 243-202 542-590 889-402 56 31 171 133 240 114 307-83 608-191 931-110 143 36 288 25 433 9-2 34-151 14-57 47 5 38-138-14-183-17-36-2-68-2-101 13-34 15-410-86-400 24 9 1 13 1 22-3 10-4 147 175 159 209-69 14-87 2-71 68-38 7-129 19-132-24-152-74-77 36-68 108-24 6-144-200-191-216-76-23-165 63-231 92 19-42 164-108 157-136-12-56-151 20-199 26-30 4-319 120-173 20 69-47 157-68 220-123-28 1-163 48-168 76-246 62-512 191-717 339 9 237 398 104 559 128 39 6-127 37-135 92-71-12-57 18-116 55-9-27 40-63 66-72-18-11-47-13-59-28-11-13-208-6-237 12-36 23-214 47-114-28 38 48 176-16 43-28-40 39-93-97-4-165 69-53 119-121 8-53-28 17-81 105-91 104-2-17 0-34-12-48-159-3-115 190-180 256-43 43-57 109-99 154-74-88 195-226 112-325-53 6-87 72-103 71 0-34-112 28-122 82-55-6-184 71-91 72-16 64-111-33-123 114-28 7-7-17-30-22-68-13-195 182-223 233-31 57-179 62-178 59 13-51 217-68 206-159-44 0-100 63-156 76-31 8-225 18-165 38 0 7-133 83-138 68-6-19-89 77-136 86z"/> <path class="fil6" d="m5872 8516c-122-49-245-99-367-148-106 27-253 2-374 101-14 10-87-28-29-86 149-148 1513-639 1468-630l770-145c217 29 339-17 555 11 169 20 338 58 501 105 293 96 534 168 831 85 35-10 199-84 126-5-135 134-302 228-463 325-78 123-274 112-357 236-275 103-498 344-804 357-209 36-439 177-617 213-528 129-564-147-1240-419z"/> <path class="fil2" d="m1912 1668c-30 31-75 74-62 122 2 4 3 8 4 13s12 12 7 13c-41 6-67 1-76-39-16-72 90-117 146-123 4-1 9-2 13-1 26 8-29 14-32 15z"/> <path class="fil8" d="m3520 5972c-113-138-191-306-219-482-6-42-4-81-23-121-33 33-67 66-100 99-76 49-149 101-232 138 8-15 16-25 28-37 155-148 73-56 207-248l-23-185 154-139 551-141-43 1144c-2 34-5 67-29 95l-4 7c-104-13-192-52-267-130z"/> <path class="fil9" d="m1443 3958 1-10c14-80 24-166 71-236 9-34 27-64 35-99-29-36-93-50-135-64-70-22-125-69-147-141-15-85 50-182 121-224 10-7 12-6 24-5-14 52-53 101-80 147-7 12-7 17-19 19-3 40-11 95 38 104 45 5 92 1 137 1v13c-26 6-46 11-69 23 5 9 10 19 15 29-11 12-11 14-27 15-6 1-11 1-16 2 50 22 102 38 152 60 25 12 139 12 93 56-41 48-68 113-96 170 3 1 5 2 8 3 21 9 45-43 58-58 50-44 102-82 158-118 16 1 34 3 50 3 54 1 59 2 27 45-30 41-68 76-112 102-62 29-74 54-138 122h13c11-12 62-42 36-5-5 16-17 27-24 42-25 29-62 43-95 62-10 5-19 9-31 11-39 9-48-35-48-69zm4172-1846c-1782 519-2771 1871-2752 1860-30 42-103 84-143 113-64 48-384 443-433 326 8-8 230-218 170-213 29-80 198-194 198-238-41-5-135 92-170 122-153 71-488 87-553 263-1 0-586 19-415-129 17 42 0 42 79 39 91-3 178-101 237-168 39-51 262-278 157-312-137-43-123-18-55-144 95-151 315-229 468-297-6-73 100-11 100-63-193 25-384 79-578 108-95 22-43 99-38 168 5 72-15 42-41 39-129-17-62-358-63-436-73-9-172-38-44-59 40-51 68-104 69-169-172-4-385 337-455 56-11-71 29-174 87-219 92-74-10-157 77-272 38-50 164-182 234-181-17 69-143 113-66 126-1 2-226 154-88 94 258-111 558-81 831-74 23 12 56 24 11 39-238-12-517-69-744 33 35 35 91-36 88 37 130 30 261 61 392 86 0 44-263-40-298-46-37-6-221-19-222 8 117 8 239 7 348 56-12-1-399-47-242 23-20 53-98 7-91 80-85-2-129 9-184 76-58 70 214-22 228-26 115-32 143 48 213 52 20 0 184 18 97-4 1-28 123 36 158 10 59-45 305-123 197-221 17-22 18-42 18-69 128 3 193 87 148-55-1-8 161-17 181-18-42-91-356-133-447-147-144-22 157-15 156-19-25-52-112-96 4-82 31 3 589 163 306 26-113-56-240-66-355-113-122-285-123-120-371-215-279-149-226-301 66-342 5 33-53 20-54 58 228 57 490 275 736 145 183-5-61-128-60-254 137-11-7-186-97-190-24-55-70-211-9-76 9 31 20-3 45 30 92 122 181 215 330 270 1-12-5-199 13-110 23 115 64 251 186 295 26-30-12-66-17-99 119 36 64 64 61-112-2-107 71 153 160 168-13-71-53-129-84-193 73 20-94-305-109-365-30-117-182-54-248-155 175 105 62-83 58-198-6-148 145-373 310-371 25 9-34 296-41 347-1 42 106 136 171 137 38-113-12-330 1-465 12-134 186-695 346-397 6 102-42-28-31 109 27 181-33-61-41-105-34-126-43 254-42 268 6 93-66-175-92-14-25 155-52 341 10 492 28-32 6-127 32-127 11 126 2 261 39 383 73 84 130 164 174 266 44 1 14-145 53-151 134-35 109-88 218 25 34-2 112-301 127-375-50-86-98-218-110-54-6 0-77-157 40-102 36 17 65 62 99 31 149-130 216-420 479-416 34-32 88 7 115 30 93 120-123 600 7 617 185-164 344-311 596-344 106 70 232 100 172 263-34 91-321 384-101 287l340-82-252 1025z"/> <path class="fil10" d="m5886 1711 202-205c51-50 53 38 23 126-36 89-104 240-193 275l-517 168-479-328c-225-142 142-165 157-207 18-48 44 50 84 0 51-65 122 5 161-37 104-112 220-126 157-85-52 34-98 170-78 140 21-32 141-142 175-195 4-7 238-207 240-213 31-66-314 43-290 25 88-69 784-279 669-16-21 48-36 63-72 103-128 141-189 266-239 449z"/> <path class="fil0" d="m4205 6018c-43 53 3 122-34 189 2 72 12 142 8 235 9 12-35 139-21 143-64 361-49 391-63 836 24 73-59 58-40 152-10 8 23 117-54 75 3-47 4-84 5-195 4-101-8-161 7-286 29-87 42-156 60-257 14-86 34-233 32-312 16-171 3-406 17-594 36-7 73-84 83 14z"/> <path class="fil11" d="m4745 5084c29 229 123 379 221 560 59 71 167 161 261 167-13-141 28-369 121-336-5-12-10-133-10-162 17-87 40-103 70-90l-402-164-261 25z"/> <path class="fil8" d="m4519 4989-123 690c-23 24-40 77-67 122-58 110-82 169-207 203-62 15-136 24-187-28 46-97 18-129-19-108 117-61 204-381 320-468l37-424 246 13z"/> <path class="fil1" d="m3823 5985c-34-98-89-204-151-297-95-141 27-352-6-407-18-165 8-456 135-399 38-136-95-63-73-206 227 114 346 134 526 175 126 17 46 343-2 529-40 84-359 630-429 605z"/> <path class="fil10" d="m3060 4798c-105 118-221 212-348 306-7-5-15-10-23-15 2-63 56-75 107-99 81-104 123-227 161-351 2-9 36-119-11-71-40 48-89 117-144 147 63-112 157-199 191-326-45 21-76 73-104 112-51 38-129 51-170 101-19 22-35 52-56 72 0-9 0-19 1-28-31 0-52 16-78 32-12-45-121 3-153 13-115-3-229 21-328 82-42 27-68 47-97 88-42 61-32 13-14-25 48-85 105-159 197-193 27-19 56-44-1-35-16 3-32 7-48 9 20-53 42-83 102-101 25-13 126-52 45-48-39 1-29-1-32-34 14-5 20-13 30-23 11 27 7 30 36 19 55-21 94-70 135-113 36-39 33-70 74-107l-13 1c28-94 119-163 186-229-3-22-7-28-31-17-60 28-111 75-182 77-1-9-3-19-4-28-119-1-233 22-342 70-4-13-9-25-12-39-20 5-70 4-30-18 31-17 34-30 38-64-22 8-146 44-100-17 27-36 27-84 26-127-42-19-71-68-38-109-14-10-25-1-25-21 63-43 118-92 174-142 69-61 145-109 221-159 93-61 185-105 295-121 36-31 101 3 117-44 47-16-59 58-68 71-1 246-47 359 118 588l12 88 125-100 605 520 141 553c-28 61-31 117-268 246h25c-29 28-91 116-69 20 8-32-6-26-14-2-20 38-46 42-86 59-6 14-9 22-24 27 17-66 91-118 59-190-19 32-83 132-116 132 0-26 17-38 38-51-3-35-11-67-36-93-37 16-55 69-66 104 25 31-23 73 9 114-1 26-25 48-41 66-4-21-2-39 0-61-27-7-16-57 8-56-2-11-3-21-3-32-47-60 7-145-15-212-8-3-16-7-23-10 2-86-2-171-5-257-9 2-18 4-27 5-10 15-21 30-31 46z"/> <path class="fil8" d="m6399 3744c56 48 120 96 133 117 69 12 160 140 206 267-1 79 76 216 26 206-75-16-66 39-130 47-59-8-141-31-237-63-167 5-317 8-452 10l-197-561c46-181 601-66 651-23z"/> <path class="fil8" d="m5659 3479c24-64 50-132 78-206l431-535c110-136 297-66 512-67 121-1 267 24 276 42-105-33-461 197-596 306-1 29 52 69 111 111 59 41 123 85 145 121 43 69 43 122 124 148 39-6 90 19 139 97 55 102 350 153-58 216-103-3-255-32-347 38-57 44-474 138-583 49l-232-320z"/> <path class="fil11" d="m5653 3900c84 118 120-199 448 331 9 14 292 256 284 316 5 56 54 168 37 242-6 13-56-162-180-103-509 53-809-133-810-300-208-233 36-432 221-486z"/> <path class="fil12" d="m5794 5094c-38 143-34 473-250 485-53 27-119 66-156 51-3-39-22-127-123-160-44-41-351-395-354-395l-123-231 436-346c156 14 577 171 634 408 18 75-47 124-64 188z"/> <path class="fil8" d="m5498 5397c-15-67-20-145-17-219 6-112-78-305-78-347-46-100-169-277-221-202-97-91-349 143-425 216 50-55-97 210 105 329 106 193 609 238 636 223z"/> <path class="fil12" d="m4984 5438c20 160-2 302-18 462-14 92-82 188-157 246-37 25-117-319-234-309-6-30-129-40-102-78-95 8-94-41-90-122 1-43-19-106-4-151 11-140 39-87 50-227l163-324c207-86 355 94 392 503z"/> <path class="fil11" d="m3886 4797c20 21 56-25 47 22-15 76 214 122 266 184 54 65 230-51 137 82 9 60-216 612-295 638-8 3-53 0-57-10 25-1 183-242 21-219-52 15 158-52 88-126-33-35 26-203 51-147 67 148 95 81 91-107-65-62-161-71-328 2-70 31-123-22-176 41-52 62 5-151 10-183 10-76 102-114 145-177z"/> <path class="fil10" d="m6460 2439c-21-1-42 6-63 9-54 8-213 57-223 55-159-32-475-194-421-324 21-3 90-3 170 108-22 118 254 190 320 97 14-19 21-2 23-25 3-33 62 37 92 17 25-17-63-71-35-90 91-62 250 18 230 32-5-38-193-153-206-188 48-9-32-73-6-78 15-3 3-16-10-16-29 0-3-15-25-19-18-2-1-13-18-15-16-3-47-12-55-26 121 16 270 146 324 251 13 26 21 40 29 67 8 23 7 49 12 72 2 11-25 21-26 36-3 33-85 17-107 37h-5z"/> <path class="fil8" d="m6025 4673c81 34 144 102 155 129-2 124 137 220 64 236-78 62-184 58-268 11-73-41-123-35-179-41-217-23-335-242-423-274l-20-256 246 22c113 10 232 25 425 173z"/> <path class="fil10" d="m2957 2472c-66 200-139 379-214 575 40-1-67 38-78 46-100 68-140 153-266 169-21 2-43-1-61-13-25-16-80-5-111-4v-19c88-28 146-35 186-124 58-22 92-64 141-98-15-13-32-26-48-38l4-16c-100 16-199-4-299-16 19-47 60-51 93-84 32-32 73-54 106-86 33-31 54-93 94-107 48-17 100-14 150-19-15-105-100-111-84-104 77-21 415-26 387-62z"/> <path class="fil2" d="m5908 1900c9 5 53 60 61 66 4-11 9-21 13-32 9 7 17 11 28 13 51 14 105 5 156 21l-1 12c-62 4-121 18-183 21-5 1-16-4-15 1 9 45-34 123-56 81-9-18-118-70-191-28-5 3-70 7-75 5-5-11-1-18-1-31-88-27 157-126 264-129z"/> <path class="fil13" d="m5994 3581c101 68 177 111 238 222 10 18 211-44 207-23 13 0 17 34-100 66-40 62-56 155 4 197l-19 7c-58-71-34-91-132-95-41-46-76 57-127 24-6 19 8 59 2 78l-36-17c22 92 24 137 144 263-59-52-538-408-561-553l380-169z"/> <path class="fil13" d="m5228 4675c-10 17-162 104-153 147 17 84 210 135 209 115-23-422 122-76 183 158 18 70 202 58 241 42 48-21 90-22 118-22h26c30 0-13-17-39-43s-166-108-190-132-34-58-70-94c-46-45-84-87-101-94-93-41-192-129-224-77z"/> <path class="fil10" d="m3263 1890-72 199-189 244c-13 16-50-32-80-59-42-51-470-98-454-174 10-49 185 89 178 6-4-54-183-4-103-67 38-30 10-48 70-34 96 21 125-104 154-114 23-8 169-97 169-99-24-73 84-15 27-76-63-68 63-68 114-26 59 48 127 152 186 200z"/> <path class="fil14" d="m4559 5062c0-13-7-61-125 206-58-411-67-140-120-148-59 110 11-134-115-100-61 14-120 29-172-23-84-88-37 53-86 29-110-23-40 45-90 49l-61-36c1-72 141-220 149-211-25 0-225 191-215 141 38-135-163-52-142-195 11-85 18-81-44-61-74 15 52-102-77-72-92 21-67 32-147-72-71-77-288 294-233 176 5-14 78-156 60-158-55-7-73-225-56-286-75 5-223-27-186-98 97 3 74-103 87-162 30-136-162-39-201-36 50-50 81-80-11-96-3-44-69-76-63-128 2-13-71-155-81-163-97-86-71-80 22-118 72-19 35-78 49-148-38-76 36-138 82-113 3-42-71-30-53-100 11-44-70-123-17-164-32-37 8-174 52-208 95-76-82-20-30-87 100-54-140-150-15-133 168 4 120-31 64-121 104 18 376 77 209-91 50-116 18-159 14-146 50-38 197-186 145-209 42-5 52-110 75-128 37 55 50 16 76 120 42-3-40-264-36-228 79 85 230 65 227-60-2-62 240 140 290 21 59-89 121-122 91-234 34 1 131 283 161 172v1c19-90 31-120 89-190 44 23 60-2 88 11 29 14 167 43 185-3l78 8c-13 147-25 113 62 230 33-8 48-26 51-49 107-6 359-101 359-51-60 25 20 56 47 39 78-52 214 13 154 103-15 133 163 56 181 17-1 51-125 50 45 159 184 50 197 14 93 54 49 90 131 13 202-9-71 113-16 245 36 237 128-92 32 163 272 136-27 100 173 166 406 105-71 4 60 55 87 80 104 109 99 111 196 97 18-3 14 90 40 87-396 72-512 226-461 272-323 35-109 327-10 215 16 100-350 48-84 209-108 2-140 67-140 119 54-3 88 63 121 184-95-118-199 6-170 8-108 3-162 59 7 113 17 37-185 54-101 88 57 23 100 91 104 157 174-10-222-8-149 135-89-30-86 47-87 88 12 41-71-49-145 68-34 97 228 38-58 194-120 65-78 129-110 143-13-76 41 140-193-30-15 123 62 326-73 56 13 164-35 206-174 321-1 28-26-65-48-38-8 10-9 51-18 61-2 21-55 82-44 148-58-56-106-291-157-117-14 93 25-60-50-2-102 76-12 6-108-35zm1928-2349c-27-16-175-77-187-105-213-26 119-175 183-58 34 53 160 190 72 168l-68-5z"/> <path class="fil15" d="m4957 4988c-2-69-13-106-14-167-68-60-65-158-88-37-64 1-78-136-103-5-30-1 7-29-27-21-5 27-5 67-39 72-24-89-24-81-50 4-30-1-18-14-17-41-36-1-69-13-102-25-10 34-30 38-64 43 18 60-38 48-58 12-46 11-1 39-1 50-60 7-32 94-86 51-4-31-44-69-67-87-24 86-45-35-83 56-33-18-50-188-67-110-32-11-56-34-64 11-34-20-57-36-74-73-76-2-18-66-69-82-11 26-103 52-70-2-25 14-49 33-77 36-20-65-107-110-175-118-15-35-38-43-76-44-19-32-37-59-46-95-49-20-94-41-147-42-39-61-38-123-34-196-35-6-42-36-55-66-18 0-32 15-48 15 2-77 56-86-30-77-4-26-5-46-2-72-69-13-121-127-148-176-24-1-58 23-61-6 65-42-9-125-59-147-1-45 4-88 55-102-9-35-56-27-90-45 1-27 0-55 1-83 70-75-13-114 17-155 87 2 35-65-16-14-64-8 6-35 27-40 6-49 15-47 59-74 6-66 118-90-13-122-36-106 82-70 45-129-40-1-39-3-47 39-37-12-35-66-36-96 20 5 36 15 58 16 1-42-21-49-60-53-1-38 30-32 62-36 3-37 9-68-15-98 19-70 63 2 105-50 99 12 91-36 3-68 7-66 22-47 82-30 7-33-16-44-44-56-3-66 46-44 87-43-1-34-12-65-14-99 51-4 74 34 101 69 62 2-80-113-112-117 1-56 106-142 154-160 36 1 43 81 78 94-7-77-70-85-69-150 80 0 86-1 103-79 23-21 47-25 76-14 14-15 32-43 56-42 48 66 62 9 4-28 2-17 3-34 4-51 70 8 138 16 210 13 13 15 24 14 43 14 59 47 87-47 40-59 17-28 33-56 51-84 59 7 67 2 81 63 28 1 25-29 33-53 62-27 98-61 155-11 66-6 148-21 164 71h18c13-56 114-49 155-51 33 33 68 53 90 95 27 20 59 33 84 56 42-12 79-41 123-40 18 42 93 43 132 27 55-2 109-14 165-12-64 94 61 23 108 65 5 56-7 103-40 156 21 29 121 3 157 4 9 29 36-6 69-2-25 108 125-18 146 59 7 72-38 98 34 136 3 53-17 100-19 153 55 7 65 2 67 59-47 8-18 28 18 29-1 24-32 47-45 74 64 67 172-5 238 50-23 34-41 68-83 82l-9 2c-32 67-155 128-1 166 34 4 189-16 188 3-83-2 43 55 43 56-8 8-22 4-31 2 2 17 12 31 19 46-132 75-137 31-22 104-3 49-47 42-53 104-18 8-26 15-38 31-34 2-60 4-91 19 44 53 33 88 66 122-30 23-48 14-55 59 38 45 110 66 160 90-47 37-156 17-204 5 32 75-15 85-78 100 50 122 220 160 316 196 53 18 113 30 122 94-35-17-61-43-98-22-14 0-14-9-20-20-56-9-107-50-153-79-56-34-66-60-111-3-59-56-24 69 22 88 22 11 121 68 54 67-1 34-73-16-95-21 28 81 152 176 221 212 18 15 66 37 38 43-185-91-194-161-284-166-1 43 8 50-40 40-32-3-26 36-32 60-77-2-95-33-110 55-11 9-27 20-8 29-13 36-68 32-47 93 28 84 31 73-42 53-62-7-75 45-79 93 25 42 50 81 63 128-13-2-26-4-39-6-28-46-59-3-95-8-26-33-56-74-101-75-1 42-18 58-26 103-219-18 47 276-104 398z"/> <path class="fil16" d="m2951 3473c-42-11-10-41 10-64-4-50-27-61 24-60-9-16-48-64-36-70-56-23-4-67 23-90 16 9 34 30 40-90l57-18c-40-10-63-31-62-73 33-2 34 20 69 15-4-63-131-126-62-93 17 8 34 19 52 25 3-7 17-62-4-43-41-55-4-70 62-68 25-37-162-90-86-89 8-53 70-31 97-77-102-68 7-65 52-59 36-51 58-38 20-44 1-24 23-14 44-29-9-16-14-3-20-19-26-147 34-57 114-55 2-85-70-43-101-115-67-88 16-146 31-21 61-12 13-146 68-109 37-57-39-109 29-108 30 94 101-125 111 6 52 1 111-91 163-112-11 50-26 62 28 59 29-2 3-86-2-110 54 38 57-20 104 2 1-22 2-43 11-64 76-12 111-68 189-106 7 20 8 35 9 56 100 3 50-218 107-110 18 35-32 68-41 111 24 8-2 48 21 85 20 32 39-46 37-65-8-53 9-45 51-44-2 44 47 145 49 62-17-103-14-40 34-54 2 37 29 120 68 57 26-42 20-35 25-82 6-60 94 118 95 82-4-30 71 46 18 45-1 62 88-5 106-30l-2 34c-8 33-76 214-12 184 11-44 23-157 85-168 37 33 23-13 54-11 80 6-138 146-72 169 58 2 70-91 106-90-10 45-47 44-30 86 15 3 33 11 44 1 45-57-22-48 20-90 22-23 68 41 105-40 53 9 44-33 67-23 9 96-2 65-86 91 9 9 14 23 6 33 28-1 75-28 82 5 15 0 26-27 46-32 8 33 38 65 37 98-88 28 23 37 17 56-36 109 31 41 31-39 23 5 56 23 84 20 64 68 102 86 91 177-70 19-39 56 19 27 46-22 67 31 62 71-19 5-142 51-79 67 1-68 206 83 233 89-17 67-10 88-87 107-10 67 50 42 94 83 39 37 27 91 49 135-40-17-64 7-19 19-1 42 82 23 33 70 8 36 2 91-33 112-2 29-3 57-5 86-115 40 90 34 61 103-57 16-61 72-130 66 17 92 42 177-91 165-79-7 1-42 2-68l-74-1c-1 44 10 71 26 111 82 6 89-46 86 71 114 50-123 243-131 175-57 5-34 21-11 44-2 44-5 87-25 127-20 2-27-1-32 19-18-3-61-41-59-11 1 44 48 61 53 105-8 6-34 2-22-9-81 12-110 108-201 52-31 23-23 117-24 150-55 4-34-61-96-55 25 88-28 126-26 45-44-1-33 3-30 56 53 34-106 52-87-36h-44c35 74-77 56-85 121-11 2-22 6-33 10-42 104-60-124-74 7-4 46-18 46-61 53-48 143-49 5-114-15 1-49-28-122-80-129-46 77 83 77 44 150-33-1-55-22-63-54-106 16-6-81-102-93-4 28 0 33-32 28-58 109-134 36-72 8 15-7 8-22 9-38 98-7 19-137 3-16-39 3-83 62-90 100-11 65-9 14-73 12-22 19-92 66-90 12 38-15 71-46 30-85-58 18-122 78-128 0-35-11 42-124-53-54-18-15 13-49 19-74-47-24-57 21-65 59-35 10-111 40-52-10 65-53-5-43-40-36 15-117 26-12-86-98 1-33 57-70-11-83-26 33-34 49-19 87-86 8 2-130-36-142-36-11 60-61-16-71-23 23-36 48-73 47-25-42 15-73 12-117-36-10-72-17-82-58 59-18 117-62 13-53-34-41 1-53-68-59-115-120 119-116 75-191-48 14-91 51-142 56-15-31 7-59 8-92-78-5-82 52-62-52z"/> <path class="fil17" d="m3651 2845c-12-17 12-12 24-21 37-29 65-122 143-89-12-16-14-31 0-47 55 42 2-57 95-25 21 7-32-84-4-60 44-39 118 20 143-25 36-63 31-10 60 16 28-32-7-37-1-75 8-54 51-50 18 2 28 15 88-65 104-51-18 44 77-16 40 37 71 62 133-28 160 31 32-34 84-12 129-1-32 81 131-50 9 45 2 3-31 102 16 26 14-22 18-14 33-1-14 16-25 72-1 39 51-73-14 93 72 10 21-20-7 120 52 105-13 14-87 78-74 77 37-3 65-66 108-23 29 28-101 14-80 41 18 22 55-12 68-1-17 14-36 1-38 23-1 20 113-25 137 17-28 39-22 24-62 7 3 42 79 40 32 93-42-18-3 21-11 26-48 29-2 25 23-5 64 81-31 137 3 145 24 6 16 33 1 46-134-63 100 195-57 120-14 12-7 150-38 164-16 7-28 27-47 31-54 13-25 155-108 73-94 163-68-112-116 34 94 91-106 78-112 91-20 46-49 24-67 37-44-52-6 7-32 33-9 10-84-84-153-5-22-15 6-33-19-50-17 39-114 10-74-21-9-8-150-28-171-21-87 29 3-82-27-115-42 14 7 55-31 70-26-23 1-90-15-107-36 32-94-31-51-19 80 22 23-63-43-7-7 5-78-33-69-43 95 31-13-57-10-62-22-34 69-69-16-57-42 6 14-137 1-144-18-9-28 7-35 27-37-26 75-80 48-97-14-9-37 12-42-5-14-50 69-53 43-147-22-78 81-6 88-48-58-25-87-1-39-55-28-27-47-6-7-39z"/> <path class="fil18" d="m4128 3442-5-15c-15 1-30 3-46 4-21-19-35-20-65-22-6-14-7-24-7-39 15-5 28 0 43 2l5-21 14 5 4 29c19 1 23-1 41-12v-34c-18-19-46-52-64-13h-13c-4-43-6-86-8-129-11-9-18-14-32-14 9 18 10 34 11 54l-15-1c-9-23-37-31-37-60 12 0 23 2 34 2-7-39-20-81-13-121-13-22-13-39-14-66l-20-14c15-11 35-15 52-21-5 34-6 63-4 97h16l7-30c8-29 17-58 24-87 53-20 12-99 74-108 9 9 15 6 27 6 20-38 35-26 69-13l5-21c12 1 23 1 35 1 27 37 56 97 55 143 11 11 28 10 43 12l11 28c18-2 30-3 46-11l1-29c-14 0-28-3-42-3-9-18-15-28-31-39 0-14 3-34-8-45-12-9-23-17-35-27 0-13 5-23 20-22 21 0 44 11 65 17-1 13-1 25-1 38l-21 4-1 16c16 1 18-1 32-10l23 14c0 12 0 23 1 34l14 11c13-6 19-7 34-7 13 33 10 72 14 107l23 10v27c-23 27-35 61-58 88 1 17 3 34 4 51l-6 7c-39 43-73 104-88 158-14-1-28-1-42-1-4-11-7-16-7-28 45-32 56-108 62-159 13-2 28 6 40 9 2-37 2-73 4-110-11-3-23-7-34-10l-5-21-26 5c-2 14-1 21 5 35l24 13c6 23 14 48-2 69-8-14-17-27-25-40-21 39-9 89-30 129-13-1-26-5-39-6-10 7-9 18-9 29 11 1 22 0 33 0v19c-22 4-43 4-66 3 0 11-1 22-1 33l12 13c33-62 26 1 23 35-28 14-53 18-85 22 20-33 30-62 31-101l-12-13c-25 28-23 66-65 79 0 22 9 44 14 66l-13-1z"/> <path class="fil18" d="m3926 3368c-1-19-4-38-5-58 13 10 27 21 39 31v23c-12 1-23 2-34 4zm58-37c-7-20-7-36-4-57h12c2 19 3 38 5 57h-13zm-108-9c-3-11-6-23-10-34-7-1-15-2-23-3-6-31-12-59-11-91l-13-13c7-42 21-84 22-127 12-11 16-28 21-43 5-30 8-59 11-89 15 3 20 4 29 17-13 50-29 109-18 160 4 26 22 48 49 48 1-35-9-66-17-99-1-12-1-24-1-37 25 10 22 28 21 51 23 35 21 62 7 99-8 20-15 40-19 62-11 1-22 2-33 4 2-18 5-26 17-38l-1-21c-10-4-19-7-29-10-1-16-1-31-2-47-5 0-10-1-16-1-4 19-13 40-14 60 8 3 15 7 23 10-2 14-5 25-11 38-5 16-5 26-1 41l15 3c5-5 10-9 16-13 3 3 7 6 11 8-1 22-6 44-10 66l-13-1zm54-367c-2-11-1-23-2-34 27-6 52-8 80-8 6-21 12-43 19-64h13c0 28-5 50-13 77-12 4-24 7-35 9-13 2-25 0-37-2l-25 22zm331 509c-1-11-1-22-1-33h22l-1 29c-6 1-13 2-20 4zm274-324c-7-10-9-15-7-27 19-9 38-17 56-26l10 7c-12 10-25 20-37 30-6 6-13 12-22 16zm-16-121c-7-10-9-14-7-27l22 1-1 22c-5 1-9 2-14 4zm14-50c-1-11-2-21-2-32 4-5 8-9 13-13 9 15 7 21-3 35l-8 10z"/> <polygon class="fil3" points="5090 8127 5131 8096 5236 8145 5304 8067 5478 7961 6174 7663 6827 7508 7354 7541 7997 7627 8248 7681 7494 7681 7043 7776 6818 7992 6502 8172 6199 8276 5778 8304 5409 8370 5294 8357 5155 8379 5044 8271"/> <path class="fil0" d="m4015 9925c-1-6-1-12-3-19 16-13 17-19 36-12-3-57-17-106 26-151-2-34-19-39 9-65-6-3-11-4-18-6 14-28 4-32-5-62-10-33 2-69 6-103-10-10-20-10-34-14-2-26-8-58 5-83 15 22-6-50-8-57-2-6-4-12-6-19 25-3 27 3 15-20-20-60-24-121-17-183-5-2-9-4-14-6-1-26-8-87 14-109-3-18-4-38-19-51 5-46 10-78-16-117-20-32-28-23-40 3l-28-1c-8-27-6-50-6-79-32-49-54-100-60-159 20-19 26-28 27-57-54-26-58-32-54-92 14-1 27 0 40-1-14-15-20-22-20-43l67 2c1 20 0 40 1 60 40 28 55 103 68 146 30 6 41 22 60 46 5-10 5-28 6-40 3-66 2-134 0-201 22-29 47-56 44-95 17 6 14 10 18 27h13c12-58 55-50 91-84-72-75 7-133 14-220 9-8 9-1 12 10 11 76-3 156-5 233-36 34-18 127-18 170-1 21-4 39-13 58 13 91-18 182-25 272 29 37 13 113 9 154-35 29-8 37 3 72 29 100-33 212 7 309-3 32-5 64-9 96 12 12 16 29 21 46 17 114 12 227 3 342 19 26 19 44 15 77-68 27-140 25-212 26z"/> <path class="fil6" d="m3647 11392c1-44-71-194-104-195-39-1-195-311-235-360-60-74-194-162-224-240 80 22 145 162 219 158 10 0-10-95-12-115-6-54 14-189 73-75 37 72 93 130 111 211 13 58 52 96 92 138 68 72 184 421 128 512-14 23-43-26-48-34z"/> <path class="fil7" d="m2298 11348c-56-33-2-41 7-64 9-22-6-140 16-139 20 0 30-103 18-98-67 22-34 68-74 102-85 72-43-45-134 0-83 41 16-29 10-46-30-86-85 31-110-60 11 7 22 16 33 24-1-71-12-120 39-171 7-7 95 0 74-55-18-49 162-193 122-204-9-2-11 2-10-8 0-15 116 10 136 13 124 23 333 52 431 122 27 19 8 32 52 25 69-12-24 15-14 39 23 56-30 6-52-1-50-16-69 31-48-41 4-15-24-4-32-2-44 15-60 15-94-6-96-57-99 55-55 106 32 38 21 116 68 143 30 17 22 119-19 50-28-45-25-100-76-128-22-12-13-20-20-42-58-179-260 257-208 368 6 12-31 5-34 10-13 23-3 41-26 63z"/> <path class="fil7" d="m1200 11532c-3-39 56-149 84-123 5 4 8 6 14 9 17 8-4 22-21 35-3 2-6 5-8 8-30 33-16 72-32 72-12 0-25-1-37-1zm-265-121c-41-18 72-94 74-136 2-34 26 4 35-19 6-16 28-5 38-19 9-13 90-62 56-81-66-36 13-18 39-20 50-5 92-36 138-52 43-14-17-80 22-66 37 14 58 14 60 53 2 34-138 54-138 81 0 16-143 47-77 49-20 25-62 27-76 53-37 64-119 105-171 157zm416-91c-43-15-52-6-22-47 14-21 25 9 46 14 29 6-15 29-24 33zm39-63c-20-26-42-10-18-49 11-18 76-133 104-96 27 36-65 123-86 145z"/> <path class="fil7" d="m1653 11168c-30-42-23-105-22-154-24 10-44 15-70 18 31-58 73-105 107-160 15-23 21-51 38-71 24-27 28 10 57 23-14 9 38 5 46-14 40-95 90 4 67 38-14 21-50-16-75-11-17 3-4 29-13 43-5 8-20-2-27 4-12 13-19 43-20 44-22 19-60 40-61 73-2 43 4 132-27 167z"/> <polygon class="fil7" points="2010 11113 2009 11099 2009 11085 2017 11085 2023 11086 2027 11088 2030 11091 2033 11100 2035 11113 2023 11113"/> <polygon class="fil7" points="2243 10666 2236 10658 2230 10650 2222 10642 2215 10634 2216 10627 2216 10619 2231 10618 2246 10617 2261 10617 2276 10616 2274 10626 2272 10635 2269 10642 2266 10647 2263 10653 2258 10656 2251 10661"/> <path class="fil7" d="m2197 12395c9-31 158-163 176-162 41 2 187-8 191-51 1-20 41-195 56-118 5 29-55 130-4 86 54-47 97-65 149-130-98 22 40-86 67-131 46-79 32 34 74-33 26-42 32-88 72-99 24-6 62-63 86-84 70-63 2-61 18-129 32-139 31-165 5-307-24-133 57 29 65 68 18 86 21-132 20-154-1-6 91-73 6-88-4 0 22-44 7-80-11-24-97-60-38-64 123-7 94 78 94 163 1 290-79 566-282 773-140 142-325 390-532 434-69 14-149 101-230 106z"/> <path class="fil1" d="m6240 2542c14 0 26 4 36-5 29 50 210 140 253 84 8 9 14 17 23 24 14 10 32 35 31 52 1 31-79 50-136-5l-78 16c-18 1-329 50-333 27-5-23 37-63 55-74-40-18-82-32-121-51 4-34 241-55 270-68z"/> <path class="fil10" d="m3439 1786c13-106-44-194-91-285-21-41-29-83-40-128-13-51-25-102-39-153 43 16 75 70 99 106 50 77 71 142 94 229 13 47 32 79 67 113l-27 1c-4 60-7 88-63 117z"/> <path class="fil2" d="m5852 1740c51-186 158-371 298-505 2-2 16-10 16-9 32 29-16 311-40 361 0 1-21-5-24-1-15 24-38 107-75 111-46 5-81 44-128 46-22 1-37 34-47-3z"/> <path class="fil2" d="m5196 1795c-4-46 34-85 66-114 63-57 140-98 214-139 46-53 97-101 146-150 10-38 36-68 62-96 49-55 98-117 163-150 78-41 169-50 257-56v15c-144 116-293 225-441 335-95 45-148 116-203 202 12-2 28-9 40-7v16c-81 57-167 103-253 151-17-1-34-5-51-7z"/> <path class="fil10" d="m4598 730c30-98 78-189 111-285-18 3-26 13-39 24-16-45-37 15-56 13-2-1-4-1-6-1 44-89 110-114 201-137l2-15c46 30 56 43 53 99-27 13-36 47-43 74-44 155-70 315-116 469-10 35-31 64-44 99-22-17-22-52-23-78-3-73 11-145 19-217l-13-2c-6 19-12 37-18 56l-13-1c-8-27-25-11-21-41l6-57z"/> <path class="fil9" d="m2551 4248c63-74 167-115 249-169 37-25 144-40 77 28-19 20-154 118-64 66 26-16 224-149 152-17-14 25-21 30-48 41-111 43-303 172-333 286-27 103-54 187-176 173-39-5 15-196 25-217 31-69 73-131 118-191z"/> <path class="fil0" d="m7058 8948c-89-102-232-132-341-207-74-51-170-66-243-118 0-61 246-39 287-33 85 12 162 49 246 68 69 16 232 61 296 8 84-10 151-14 235-16 238 54 276 71 70 87-114 42-226 109-347 126-43 6-78 40-124 50-13 3-29 3-41 7-13 4-26 20-38 28z"/> <path class="fil3" d="m5011 7628c-18-94 47-165 162-215 90-39 169-97 282-74 110 23 276 5 372-19 97 6 183-24 278-29 17-1 34-4 51-6l2 21c-89 20 460 127 363 188-221 139-1203 363-1459 433l-51-299z"/> <path class="fil19" d="m5435 8148c-56 35-250 268-306 280-222 125-411 414-529 632-18 38-27 86-68 108 1-49 118-209 71-196 4-26 52-56 11-99-14-33 19-20-2-55-19-42-24-195 10-244 24-30 20-136 77-77 2-53-17-85-1-141 18-81 33-60 87-95 88-81 23-99-12-180-31-87-96-162-70-263 29-73 84 87 98-46 6-54 32 13 50-18-58-69-119-137-204-172 0-13-2-14 10-22 24-14-104-120-84-149-15-18-26-22-49-28-10-18-123-226-95-254-33-112 417-134 497-132-71 18-154 59-221 89-47 53-86 72-163 83-18 3-17 0-17 15 165 72 189 351 359 354 74 5 54 12 31 69 53-12 64-64 68 20 4 31 9 58 21 88-35-165 32-274 201-321 10-2 32-4 21 10-65 65-211 63-215 186 2 57 79 252 44 288 4 5 11 10 14 16 7-118 231-52 249-132 34-24 204-126 223-69 20 0 20 3 33-15 159-63 341-57 505-103 57-15 434-85 398-110-46-32-152 17-158-55-24 2-37 1-58-8-33 49-137 38-90-3 126-102-167 37-182-22-181-3 120-71 148-78 11-23 65-17 90-11 293 62 526 111 710 173 910 203 481 14-231 120-396 58-880 208-1271 567zm1344-683c-5-5-10-10-15-14 5 4 10 9 15 14zm-15-14c-7-6-14-10-22-15 8 5 15 9 22 15zm-1539-62c9-17 216-77 237-57 115-11-193 26-237 57z"/> <path class="fil1" d="m6597 2624c32 2 56-7 88-7 19-1 41-12 60-11 36 1 72-13 132 15 21 9 66-1 75 34 40 17 60 50 73 91-41-10-38-29-79-34 0-12-45-5-43-18-114-9-192-9-326 30-1-3-41 10-43 7 40-17 80-52 123-58l2-13c-47-11-52 14-62-36z"/> <path class="fil10" d="m4602 1599c69-98 52-236 137-271 34-15 52-45 87-61 37-16 52-95 61-34 20 138 2 274-50 404 4 9 7 10 17 13-81 65-92 62-158 142-19-8-62-57-90-30-6-21-14-14-4-163z"/> <path class="fil10" d="m4083 1273c119-20 111-349 212-449 4-3 13-3 16 1 65 78 328 297 355 393 7 0 5 78 1 101-22 103-70 183-83 289 13 45 5 79-46 92-87-117-75-83-62-230l-78-8c-18 46-156 17-185 3-28-13-44 12-88-11-58 70-70 100-89 190-51-129-156-283-149-427 74 4 130 26 196 57v-1z"/> <path class="fil6" d="m3356 10483c0-57 41-98-82-145-265-101 199-186 172-121 195 49 509-125 669-118 527 24 1040-515 1565-651 149-39 673 66 324 145-130 30-435-191-553 17-86 151-81-21-229 102-82 67-712 420-527 439-19 30-118 141-103 152 72 54 361 152 410 136-21 95-55-16-160 137-217-366-842-138-1486-93z"/> <path class="fil20" d="m6609 12708 28 55c41-50-9-48-30-83-2-4 4-9 5-13 19-89-64-185-85-267-2 3-4 7-6 10-19 30-7-52 18-33 43 31 11 106 75 125 54 16 39 86 71 125 18 23 111 54 51 85 103 81 75 197 25 302-15 34-23 30-14 64 15 58-55-35-30-48 29-15-68-222-79-248-10-24-20-49-29-74z"/> <path class="fil20" d="m6204 11918c180 123 228 317 288 514 50 162 87 266-21 386-77-150-59 150-155 79-128-94 20-156-44-257-68-106-205-211-191-351 11-113-100-105 30-171-31-36-65-68-96-103 101-70 73-127 189-97z"/> <path class="fil21" d="m7465 12632c347 238 465 243 465 243l321 204 85 233 177 154 386 198 79 60"/> <path class="fil22" d="m7479 12612c349 220 451 239 451 239 2 0 5-1 7 0 2 0 4 2 6 4 107 67 214 135 321 203 3 2 6 2 8 5 1 2 2 5 3 7 27 76 36 161 81 228 42 62 107 107 171 147 323 242 306 151 225 38 6-10 167 144 160 160 1 0 1 1 2 1 26 20 54 50 69 80 126 54 159 96 25 54-32-6-94-78-122-93-126-70-137-92-265-158-1 0-121-40-121-41-1 0-2-1-3-2-59-51-118-102-178-154-1-1-3-2-4-4-2-2-2-4-3-6-27-75-27-167-81-225-63-90-168-140-309-196-30-16-100-1-391-222-13-10-65-74-52-65z"/> <polyline class="fil21" points="4065 11503 4021 12072 4095 12476 4110 12760 4006 13000 3976 13449 4021 13883"/> <path class="fil23" d="m5116 2778c78 42-43 55-47 15-1-20 28-13 47-15z"/> <path class="fil23" d="m5064 2637c67 56-117 28-26 6 7-1 18-4 26-6z"/> <path class="fil23" d="m3239 3040c-102-28-62-53-11-30 33 16 47 16 11 30z"/> <path class="fil23" d="m5188 2507c-64-20 61-52 57-38-6 19-38 34-57 38z"/> <path class="fil23" d="m5159 2635c7-41 40-41 36 0-1 12-24 0-36 0z"/> <path class="fil23" d="m4931 2590c-107 39-89 13-13-19 30-12 40 4 13 19z"/> <path class="fil23" d="m5290 2678c-34-62 109-49 38-16-11 5-25 11-38 16z"/> <path class="fil23" d="m5233 2746c-45-20 11-60 23-30 6 18-9 22-23 30z"/> <path class="fil23" d="m4941 2740c-4-33 25-53 43-28 17 24-15 25-43 28z"/> <path class="fil23" d="m5297 2805c-30-18 27-82 24-22-1 19-7 16-24 22z"/> <path class="fil23" d="m4876 2773c-21-49 61-10 33-4-9 2-22 3-33 4z"/> <path class="fil23" d="m5443 2869c-94-37 38-64 36-6 0 12-24 3-36 6z"/> <path class="fil23" d="m5276 2884c-78-42 44-55 47-15 1 20-27 13-47 15z"/> <path class="fil23" d="m5203 2942c-20-14-58-33-36-43 45-19 120 22 36 43z"/> <path class="fil23" d="m5015 2942c-23-38 65-63 19-16-10 10 4 16-19 16z"/> <path class="fil23" d="m4608 4359c-71-39-3-131 21-7 1 7-14 4-21 7z"/> <path class="fil23" d="m4280 4380c-47-98 50-100 16-5 0 1-13 4-16 5z"/> <path class="fil23" d="m4361 4453c-10-15-27-60-14-70 36-29 46 70 14 70z"/> <path class="fil23" d="m4514 4446c-15-18-37-39-39-64-2-29 103 8 39 64z"/> <path class="fil23" d="m3804 4459c-4-15 1-34 9-46 47-65 93 30-9 46z"/> <path class="fil23" d="m3697 4418c-49-61 95-95 27-21-6 8-17 15-27 21z"/> <path class="fil23" d="m3793 4362c0-19-4-43 8-57 39-44 53 49-8 57z"/> <path class="fil23" d="m3661 4328c-5-92 73-67 26-5-4 6-17 3-26 5z"/> <path class="fil23" d="m3908 4333c1-20 4-33 12-50 21-49 89 33-12 50z"/> <path class="fil23" d="m4189 4296c-19-16-35-64-3-72 35-8 14 51 3 72z"/> <path class="fil23" d="m3758 4279c-2-20 1-46 19-56 67-37 27 46-19 56z"/> <path class="fil23" d="m3523 4248c1-21-18-63 30-69 55-7-2 61-30 69z"/> <path class="fil23" d="m4050 4248c4-45 10-109 40-75 33 37-11 70-40 75z"/> <path class="fil23" d="m3847 4231c-2-97 60-75 31-21-5 11-18 17-31 21z"/> <path class="fil23" d="m3421 4215c9-23 57-117 61-53 2 29-29 49-61 53z"/> <path class="fil23" d="m3644 4200c-13-21 114-177 114-176 0 62-38 165-114 176z"/> <path class="fil23" d="m3263 3925c-11-10-17-11-5-33 68-120 77 35 5 33z"/> <path class="fil23" d="m3197 3764c-43-74 233-113 100-44-32 17-62 37-100 44z"/> <path class="fil23" d="m3103 3723c-8-63 109-50 54-6-13 10-36 6-54 6z"/> <path class="fil23" d="m3214 3561c-18-89 140-28 46-12-14 2-31 9-46 12z"/> <path class="fil23" d="m2997 3435c58-103 295-172 227-102-126 131-95 124-227 102z"/> <path class="fil23" d="m3121 3514c-6-43 87-65 71-10-7 22-48 9-71 10z"/> <path class="fil23" d="m3426 3491c-11-18-43-20-18-32 71-35 127 3 18 32z"/> <path class="fil23" d="m3260 3441c-77-63 148-27 29-2-12 2-14-25-29 2z"/> <path class="fil23" d="m3311 3367c2-53 41-77 77-37 32 36-30 33-77 37z"/> <path class="fil23" d="m3087 3291c2-33-68-7-44-27 59-50 131 14 44 27z"/> <path class="fil23" d="m3232 3241c-80-45 48-37 55-29 23 29-42 29-55 29z"/> <path class="fil23" d="m3387 3205c-4-46 17-38 65-31 95 14-44 27-65 31z"/> <path class="fil23" d="m3152 3223c-10-37-43-9-40-43 1-19 130-21 40 43z"/> <path class="fil23" d="m3250 3130c-5-3-11-8-15-9-125-46 141-12 15 9z"/> <path class="fil23" d="m3414 3058c-16-18-77-30-63-52 19-30 164 55 63 52z"/> <path class="fil23" d="m3228 2944c-84-64-36-72 1-31 25 27 38 32-1 31z"/> <path class="fil23" d="m3337 2928c-15-12-34-8-45-22-41-53 127 7 45 22z"/> <path class="fil23" d="m3269 2857c-18-15-74-27-56-43 44-42 148 29 56 43z"/> <path class="fil23" d="m3459 2907c-20-25-89-54-61-71 26-15 144 63 61 71z"/> <path class="fil23" d="m3487 2755c-22-16-62-14-68-39-18-67 104 19 68 39z"/> <path class="fil23" d="m3285 2748c-48-20-43-131 27-39 17 22 3 35-27 39z"/> <path class="fil23" d="m3418 4119c0-32 6-40 23-62 32-41 73 13-23 62z"/> <path class="fil23" d="m3519 4115c-3-12-8 6-9-7-7-93 125-74 9 7z"/> <path class="fil23" d="m3615 4117c-4-79 69-103 41-34-7 18-21 28-41 34z"/> <path class="fil23" d="m3869 4110c18-90 101-37 39-14-11 4-26 10-39 14z"/> <path class="fil23" d="m3323 4091c-39-53 73-106 60-34 0 3-52 33-60 34z"/> <path class="fil23" d="m3815 4097c-8-14-21-34-5-38 31-9 22 18 5 38z"/> <path class="fil23" d="m4054 4102c-3-23-3-45 20-35 25 11 0 31-20 35z"/> <path class="fil23" d="m4160 4096c-3-14-27-114 5-114 27 0 8 84-5 114z"/> <path class="fil23" d="m3985 4069c5-30 12-53 33-32 19 20-1 32-33 32z"/> <path class="fil23" d="m3509 4032c5-27 63-105 62-43-1 27-34 34-62 43z"/> <path class="fil23" d="m3630 4016c1-35 3-65 43-65 31 0-34 59-43 65z"/> <path class="fil23" d="m4005 3969c-1-15 2-65 20-35 11 21 0 23-20 35z"/> <path class="fil23" d="m3847 3989c-8-13-21-27-7-34 26-12 27 17 7 34z"/> <path class="fil23" d="m3383 3965c-70-41 105-107 103-85-16 143 68 33-103 85z"/> <path class="fil23" d="m4083 3969c-1-12-12-31-1-34 37-10 37 26 1 34z"/> <path class="fil23" d="m3693 3854c-5-84 95-85 15-13-11 10 0 5-15 13z"/> <path class="fil23" d="m3753 3916c-33-26 9-55 9-5 0 3-6 4-9 5z"/> <path class="fil23" d="m3836 3893c-7-9-15-17-9-26 18-27 36 16 9 26z"/> <path class="fil23" d="m4193 3889c-4-40 33-92 14-5-1 3-9 3-14 5z"/> <path class="fil23" d="m4353 4291c-32-79 21-109 15-6 0 6-10 4-15 6z"/> <path class="fil23" d="m4761 4293c-54-72 11-99 21 0 1 7-14 0-21 0z"/> <path class="fil23" d="m4256 4162c-2-18-3-35 0-52 16-82 62 52 0 52z"/> <path class="fil23" d="m4840 4213c-81-87 29-82 16-5-1 5-11 3-16 5z"/> <path class="fil23" d="m4710 4177c-21-61 12-103 21-22 2 21-3 16-21 22z"/> <path class="fil23" d="m4360 4070c-8-102 39-111 29 0-1 10-19 0-29 0z"/> <path class="fil23" d="m4934 4133c-62-68 30-76 30 0 0 9-20 0-30 0z"/> <path class="fil23" d="m5073 4133c-22-19-61-36-43-58 15-19 91 42 43 58z"/> <path class="fil23" d="m4848 4119c-7-14-13-29-16-43-18-82 73 43 16 43z"/> <path class="fil23" d="m4644 4090c-76-97 9-71 22 0 2 7-15 0-22 0z"/> <path class="fil23" d="m4455 4068c0-92 58-10 18-5-4 1-12 3-18 5z"/> <path class="fil23" d="m4550 4046c-37-93-16-133 18-11 1 7-12 8-18 11z"/> <path class="fil23" d="m5007 4036c-62-104 5-63 22 0 2 7-15 0-22 0z"/> <path class="fil23" d="m4719 4009c-19-94 68-9 22-4-6 0-15 3-22 4z"/> <path class="fil23" d="m4375 3893c-15-12-45-26-29-36 30-19 29 4 29 36z"/> <path class="fil23" d="m4520 4174c-75-97 9-71 23 0 1 7-15 0-23 0z"/> <path class="fil23" d="m4624 4172c71 40 0 127-22 6-1-7 15-4 22-6z"/> <path class="fil23" d="m4460 4295c-54-79 59-107 15 0-2 4-10 0-15 0z"/> <path class="fil23" d="m3500 3820c4-22 7-52 22-33 18 21 3 26-22 33z"/> <path class="fil23" d="m3589 3888c-14-20-5-49 15-32 16 13 4 25-15 32z"/> <path class="fil23" d="m3382 3824c14-78-108 36-77-42 23-60 249 5 77 42z"/> <path class="fil23" d="m3645 3750c-6-60 86-89 46-24-6 9-28 17-46 24z"/> <path class="fil23" d="m4042 3796c3-21 2-46 21-32 14 10-3 27-21 32z"/> <path class="fil23" d="m3461 3703c6-44 24-91 61-63 35 28-16 55-61 63z"/> <path class="fil23" d="m3283 3639c-4-52 71-78 53-35-8 18-33 36-53 35z"/> <path class="fil23" d="m3414 3591c-1-12 2-44 17-23 12 17 0 19-17 23z"/> <path class="fil23" d="m4987 3074c-4-64 52-4 25-3-7 1-17 2-25 3z"/> <path class="fil23" d="m4521 3929c-10-24-50-126-4-107 3 1 7 83 4 107z"/> <path class="fil23" d="m4987 3586c-40-46-61-103 14-29 13 14-5 25-14 29z"/> <path class="fil23" d="m4905 3756c-72-77-21-82 23 0 3 7-16 0-23 0z"/> <path class="fil23" d="m4979 3487c-13-6-140-78-67-56 10 3 111 56 67 56z"/> <path class="fil23" d="m5109 3552c-22-20-65-37-44-58 21-22 120 58 44 58z"/> <path class="fil23" d="m4898 3661c-32-56 10-46 17-5 1 6-11 3-17 5z"/> <path class="fil23" d="m4797 3651c-15-29-35-59-46-87-44-103 99 87 46 87z"/> <path class="fil23" d="m5066 3669c-94-110 0-44 16-14 9 17 1 14-16 14z"/> <path class="fil23" d="m4761 3741c-9-51-40-149 9-44 10 22 14 34-9 44z"/> <path class="fil23" d="m5167 3785c-57-41-59-186-3-71 17 35 53 71 3 71z"/> <path class="fil23" d="m5037 3799c-41-47-60-102 14-28 13 13-4 24-14 28z"/> <path class="fil23" d="m4677 3764c-16-32-71-53-58-86 7-21 99 60 58 86z"/> <path class="fil23" d="m4956 3872c-72-78-21-82 23 0 3 6-15 0-23 0z"/> <path class="fil23" d="m5022 3893c-68-45 8-83 29 0 3 10-19 0-29 0z"/> <path class="fil23" d="m4644 3901c-4-38-56-82-29-109 26-26 60 109 29 109z"/> <path class="fil23" d="m4771 3853c-63-121-1-88 12-15 3 16 3 15-12 15z"/> <path class="fil23" d="m4797 3959c-77-68-7-113 14 0 1 5-9 0-14 0z"/> <path class="fil23" d="m4921 4002c-6-7-53-66-24-68 16-1 62 57 24 68z"/> <path class="fil23" d="m4713 3907c-34-48-23-110 29-21 8 12-15 17-29 21z"/> <path class="fil23" d="m5096 3936c11-34 6-71 20-102 41-95 115 107-20 102z"/> <path class="fil23" d="m5261 3785c-9-10-21-23-27-34-35-66 98 34 27 34z"/> <path class="fil23" d="m5214 3642c-8-5-34-15-38-21-35-43 125-6 38 21z"/> <path class="fil23" d="m5225 3538c-82-71 9-60 23 0 1 7-15 0-23 0z"/> <path class="fil23" d="m5129 3478c-34-20-77-54-58-87 14-24 92 57 58 87z"/> <path class="fil23" d="m5249 3457c-6-10-20-3-22-15-10-56 145 3 22 15z"/> <path class="fil23" d="m5387 3441c-20-11-52-1-58-23-12-38 123-8 58 23z"/> <path class="fil23" d="m5171 3359c-129-92 100 0 9 0h-9z"/> <path class="fil23" d="m4928 3348c0-7-8-21 0-21 50-2 55 21 0 21z"/> <path class="fil23" d="m5280 3315c-68-74 31-71 43-6 2 14-29 4-43 6z"/> <path class="fil23" d="m5427 3325c-125-32 80-49 31-9-7 6-21 8-31 9z"/> <path class="fil23" d="m4960 3253c0-30 19-42 37-22 20 22-10 22-37 22z"/> <path class="fil23" d="m5148 3231c-14-20-64-17-73-37-15-32 148 37 73 37z"/> <path class="fil23" d="m5312 3211c-19-17-55-43-29-51 50-15 111 33 29 51z"/> <path class="fil23" d="m4971 3160c-75-37 103 0 9 0h-9z"/> <path class="fil23" d="m5429 3160c-79-57 128-34 18-5-4 1-12 3-18 5z"/> <path class="fil23" d="m5058 3124c-8-50 79-12 18-4-4 1-12 2-18 4z"/> <path class="fil23" d="m5210 3094c-7-13-121-44-48-44 52 0 92 44 48 44z"/> <path class="fil23" d="m5342 3087c-67-38 78-59 59-13-5 10-50 13-59 13z"/> <path class="fil23" d="m5e3 3059c-9-12-22-25-9-32 33-16 46 21 9 32z"/> <path class="fil23" d="m5080 3007c-3-25-4-38 25-29 44 14-10 27-25 29z"/> <path class="fil23" d="m5255 3007c-19-69 126-10 39-1-11 1-26 1-39 1z"/> <path class="fil23" d="m5324 2949c-17-72 131-20 33-6-9 1-22 4-33 6z"/> <path class="fil23" d="m5463 3016c-95-34-13-71 30-30 22 20-2 24-30 30z"/> <path class="fil23" d="m4898 3102c0-51 81 11 18 16-13 1-4-16-18-16z"/> <path class="fil23" d="m4921 3e3c0-29 87 12 11 16-16 1 5-16-11-16z"/> <path class="fil23" d="m4940 2881c-6-29 18-45 33-26 23 28-4 26-33 26z"/> <path class="fil23" d="m3381 2668c-54-29-88-73-4-48 23 7 37 49 4 48z"/> <path class="fil23" d="m3583 2736c-10-29-113-75-57-93 13-4 114 95 57 93z"/> <path class="fil23" d="m3693 2656c-34-16-75-160-15-80 17 23 48 70 15 80z"/> <path class="fil23" d="m3582 2622c-18-42-102-105-36-90 43 10 59 54 36 90z"/> <path class="fil23" d="m3777 2585c-28-167 14-118 14-18 0 15 0 14-14 18z"/> <path class="fil23" d="m3694 2497c-41-111 13-130 22-20 1 12-11 15-22 20z"/> <path class="fil23" d="m4987 2491c16-97 152-7 30-1-7 0-20 0-30 1z"/> <path class="fil23" d="m4810 2513c-63-21 61-53 57-39-6 19-37 35-57 39z"/> <path class="fil23" d="m3775 2430c-60-124 53-157 14-5 0 0-12 4-14 5z"/> <path class="fil23" d="m3870 2419c-7-29 1-79-17-91-265-174 274 22 17 91z"/> <path class="fil23" d="m3998 2422c-11-44 4-170 15-104 4 27 10 96-15 104z"/> <path class="fil23" d="m3656 2378c-56-118 32-89 19-20-3 16-4 15-19 20z"/> <path class="fil23" d="m4235 2371c1-14-7-53 17-36 20 14-6 30-17 36z"/> <path class="fil23" d="m4633 2436c-25-58 101-73 70-23-3 4-54 20-70 23z"/> <path class="fil23" d="m5099 2390c-2-16-6-36 12-40 74-17 59 37-12 40z"/> <path class="fil23" d="m3930 2351c-39-101 40-143 17-17-2 13-5 12-17 17z"/> <path class="fil23" d="m4098 2407c0-2-16-145 16-103 21 27 1 78-16 103z"/> <path class="fil23" d="m4908 2420c-98-27 46-54 44-35-1 16-30 27-44 35z"/> <path class="fil23" d="m4759 2430c1-59 63-77 56-17-1 13-48 16-56 17z"/> <path class="fil23" d="m3727 2313c-22-15-79-92-12-74 25 8 19 51 12 74z"/> <path class="fil23" d="m4516 2362c-5-42 59-105 59-53 1 35-27 47-59 53z"/> <path class="fil23" d="m5011 2331c18-80 80-48 33-4-1 0-28 3-33 4z"/> <path class="fil23" d="m4610 2316c11-40-14-17 17-41 75-58 65 30-17 41z"/> <path class="fil23" d="m4712 2311c7-29 63-73 67-41 6 43-40 42-67 41z"/> <path class="fil23" d="m3982 2281c-24-121 51-99 23-11-5 15-7 12-23 11z"/> <path class="fil23" d="m4152 2285c-1-9-4-19 2-24 16-13 35 17-2 24z"/> <path class="fil23" d="m4097 2258c2-96 66-117 31-20-5 13-17 15-31 20z"/> <path class="fil23" d="m4325 2327c-19-13 43-104 58-76 24 46 126 21-58 76z"/> <path class="fil23" d="m5102 2282c-42-19 40-104 40-41 0 37-6 37-40 41z"/> <path class="fil23" d="m4917 2265c-64-53 0-7-73-19-89-15 269-22 73 19z"/> <path class="fil23" d="m3659 2230c-21-12-18-57-11-79 22-67 50 64 11 79z"/> <path class="fil23" d="m4242 2281c-14-64 33-121 33-34 0 10-33 34-33 34z"/> <path class="fil23" d="m3780 2207c-28-119 41-82 36-28-1 13-23 21-36 28z"/> <path class="fil23" d="m3926 2191c-26-85 30-123 28-22-1 27-3 22-28 22z"/> <path class="fil23" d="m4595 2195c1-103 129-21 26-4-6 1-17 3-26 4z"/> <path class="fil23" d="m4747 2198c-19-10-29-8-13-26 70-85 73 10 13 26z"/> <path class="fil23" d="m4455 2247c4-16 13-28 23-39 46-54 51 35-23 39z"/> <path class="fil23" d="m3718 2161c-83-116 41-102 29-31-1 3-25 26-29 31z"/> <path class="fil23" d="m4041 2169c-20-97 52-124 30-15-2 15-14 12-30 15z"/> <path class="fil23" d="m4277 2168c0-21 32-92 39-77 14 30 21 64-39 77z"/> <path class="fil23" d="m4899 2183c2-109 79-64 55-25-6 11-42 21-55 25z"/> <path class="fil23" d="m4818 2174c-55-25 74-100 60-34-3 15-45 31-60 34z"/> <path class="fil23" d="m4164 2168c-21-39-27-82 22-82 33 0 7 70-22 82z"/> <path class="fil23" d="m3795 2118c-8-8-44-25-46-32-39-153 175 3 46 32z"/> <path class="fil23" d="m3949 2084c2-41 22-174 63-158 36 14 0 159-63 158z"/> <path class="fil23" d="m4235 2084c-14-117 91-190 38-90-23 43 36 83-38 90z"/> <path class="fil23" d="m4082 2068c-65-121 75-99 25-6 0 0-21 5-25 6z"/> <path class="fil23" d="m3911 2051c-45-46-49-71-13-154 56-125 46 104 13 154z"/> <path class="fil23" d="m4420 2043c-64-33 86-100 55-24-8 18-37 22-55 24z"/> <path class="fil23" d="m4173 2020c-7-20-19-16-19-34 0-91 117-20 19 34z"/> <path class="fil23" d="m3817 2004c-52-68 33-136 37-28 1 33-6 22-37 28z"/> <path class="fil23" d="m4338 1998c-7-34-19-84 30-86 31-1-12 86-30 86z"/> <path class="fil23" d="m4374 2159c-10-30 75-141 52-37-7 29-26 25-52 37z"/> <path class="fil23" d="m3453 2588c-18-19-76-32-58-65 1-3 128 51 58 65z"/> <path class="fil23" d="m3633 2528c-9-15-87-78-36-87 28-5 39 50 36 87z"/> <path class="fil23" d="m3519 2513c-11-39-50-107 14-70 28 16 59 54-14 70z"/> <path class="fil23" d="m3399 2459c-46-104 108-25 63 1-39 23-32-1-63-1z"/> <path class="fil23" d="m3539 2430c-18-33-81-99-4-77 22 7 47 64 4 77z"/> <path class="fil23" d="m3350 2351c-34-61 22-141 50-47 15 50-22 44-50 47z"/> <path class="fil23" d="m3594 2317c-25-26-45-133 1-79 8 8 0 76-1 79z"/> <path class="fil23" d="m3488 2296c-46-207-33-62 44-148 21-24 10 130-44 148z"/> <path class="fil2" d="m5438 675c-42 37-86 70-112 120 42 22 39 15 75-19 59-58 57-29 38 20-2 7-3 14-7 19-69 94-164 172-224 274-41 69-145 209-221 244-10 5-12 6-21-2-18-15-29 32-46 40-106 50-106 73-45-78-50 51-30-29 17-100 36-56 137-136 178-189 93-119 213-288 368-342v13z"/> <path class="fil6" d="m9621 13872c0-22-86-15-110-15-114 2-224-9-335-27-390-214-428-674-717-973-196-204-710-234-969-393-126-77-514-285-599-419-126-202-472-371-750-374-6-9-10-17-13-23-31-63-127-32-107-91 38-108 65-231 149-309 488-452 926-32 1275 88 389 135 746 1071 951 1188 1104 628 97 1053 1314 1327 62 14-47 24-89 21zm-467-45c-47-8-94-17-142-26 46 7 93 16 142 26z"/> <path class="fil7" d="m4161 12949c1-45 21-161 12-205 65 26 13-60 40-109l48-40c137-221 312-406 498-584 152-136 357-210 540-291 138-42 264-97 408-107 93-24 185-46 280-61 15-20 27-24 51-27 17-48 42-55 85-88l-1 19c48-19 87-33 108-82 106 3-15 92-63 100-28 4-52 27-54 53 114 7 249-39 345 34 42 40 565-34 553 17 1058 45-579-45-502 133 17 8 129 74 189 71 298 10 1028 130 1335 334 83 26 166 150 112 132 63-31-166-174-467-261-363-106-857-187-1081-143 115 184 224 358 322 514 18 69 80 9 231 93-5 3-228-64-188-23 62 99 119 190 169 271 42 68 91 163 155 150 117 194 196 79 576 267-36-34-586-120-679-274-69-112-153-247-254-393-198-285-388-562-443-564-49-73-56-57-131-73-102-28-194-110-303-112 9 17 17 31 33 42 29 17 103 108 76 110-62 5-41-43-83-51-49-5-30-56-90-51-22-1 20 58-26 62-49-51-24 23-19 44-1 28-51-9-59 33-13-1-27-2-40-3-61 79-119 174-201 233 36-134 154-208 230-319-126 23-192 112-245 222-43 99-84 169-105 273-4 15 0 24-15 24 20-161 80-370 215-465 36-64 110-86 168-125-86-160-668 125-759 164-52 25-85 62-145 88-29 16-42 39-70 51-16 9-31 19-46 29-239 185-431 439-545 717-26 57-73 178-133 177-34-4 2-5-32-6zm568-879-2 1 2-1z"/> <path class="fil24" d="m4198 11159c13 17 18 68 18 138-19 59-53 81-2 96-4 104-13 226-18 336-6 132-3 246 17 290 23 151 19 288 10 507-7 56 16 123-1 162-16 55-9 126-8 140 7 75 63-16 75-69 29 3 41-19 35-65 33-58 65-110 82-135 13-20 62-118 110-182 8-11 17-9 26-18 8-9 26-14 31-22 25-28 41-42 42-52 2 12 15 1 28-11-25 22-209 247-248 364-46 89-90 210-173 320 5 93 2 375 1 477 0 202-2 215-1 406-50 32-186 59-175 203-30-157 17-417-96-545 8 5-15-59 2-56 68 13 60 50 13-93 101-78 40-78 67-190-25-148 53-86-27-148 2-43 6-104 41-103-12-52 10-33-7-56-13-33-47 49 3-162-47-69 16-132 5-120 37-83 8-1-1-62-14-85 23-165-20-213 35 27 30-102 16-107-44-30-11-34-27-73-12-28 22-85 41-79-12-38-47 6-42 1-6-13-11-46-20-64 32-45 51-170 59-301 40-68 16-63 4-72 5-145-4-279-24-298 34 7 118-53 164-144z"/> <path class="fil2" d="m4478 1e3c-20-11-34-36-49-53-14-17-28-33-42-49 13-87 46-170 81-250 28-64 62-136 114-185 11-11 21-17 36-24-16 59-59 107-86 160-16 30-18 63-23 96-7 41-15 83-21 124h13c18-94 64-174 107-259l13 1c-48 145-81 293-111 443-13 1-19-1-32-4z"/> <path class="fil2" d="m3639 1211c-16-14-31-30-48-43-70-56-144-106-214-162 2-3 4-5 7-7 39 7 77 14 113 32 43 22 72 55 102 92 18 24 37 47 57 70l-3 15-14 3z"/> <path class="fil2" d="m3543 1489c-7-11-14-23-22-35-37-57-80-110-109-172-7-21-14-40-18-61-1-7-3-14-4-21l1-21c7 0 13 1 20 1l20 7c14 7 25 16 37 25 8 10 17 19 25 29 44 62 72 135 88 210 3 13 5 26 7 39l-45-1z"/> </svg>